<?xml version="1.0" standalone="no"?>
<!DOCTYPE svg PUBLIC "-//W3C//DTD SVG 20010904//EN"
 "http://www.w3.org/TR/2001/REC-SVG-20010904/DTD/svg10.dtd">
<svg version="1.0" xmlns="http://www.w3.org/2000/svg"
 width="16.000000pt" height="16.000000pt" viewBox="0 0 16.000000 16.000000"
 preserveAspectRatio="xMidYMid meet">
<metadata>
Created by potrace 1.11, written by Peter Selinger 2001-2013
</metadata>
<g transform="translate(0.000000,16.000000) scale(0.006154,-0.006154)"
fill="#000000" stroke="none">
<path d="M850 1545 c-19 -21 -25 -43 -37 -147 -25 -233 -27 -299 -6 -338 23
-44 64 -60 100 -40 15 9 62 75 112 158 89 147 147 226 160 218 4 -3 11 -64 14
-135 7 -162 24 -201 87 -201 34 0 90 61 147 159 31 53 70 116 87 141 l30 45
13 -95 c16 -118 35 -172 76 -206 26 -22 38 -25 74 -21 58 6 142 58 223 138
103 100 154 190 116 205 -11 4 -44 -21 -109 -83 -95 -90 -191 -151 -220 -140
-21 8 -36 67 -46 186 -12 128 -30 161 -91 161 -48 0 -125 -86 -204 -230 -26
-47 -51 -89 -55 -93 -4 -4 -11 42 -15 102 -7 122 -14 149 -47 180 -27 25 -69
27 -116 4 -39 -18 -114 -114 -183 -231 -23 -40 -46 -74 -50 -77 -4 -2 6 57 22
133 37 178 30 232 -31 232 -16 0 -37 -10 -51 -25z"/>
</g>
</svg>
